<?xml version="1.0" encoding="iso-8859-1"?>
<!-- Generator: Adobe Illustrator 19.0.0, SVG Export Plug-In . SVG Version: 6.00 Build 0)  -->
<svg version="1.1" id="Capa_1" xmlns="http://www.w3.org/2000/svg" xmlns:xlink="http://www.w3.org/1999/xlink" x="0px" y="0px"
	 viewBox="0 0 477.867 477.867" style="enable-background:new 0 0 477.867 477.867;" xml:space="preserve">
<g>
	<g>
		<path d="M426.667,0H51.2C22.923,0,0,22.923,0,51.2v375.467c0,28.277,22.923,51.2,51.2,51.2h375.467
			c28.277,0,51.2-22.923,51.2-51.2V51.2C477.867,22.923,454.944,0,426.667,0z M221.867,68.267h170.667
			c9.426,0,17.067,7.641,17.067,17.067s-7.641,17.067-17.067,17.067H221.867c-9.426,0-17.067-7.641-17.067-17.067
			S212.441,68.267,221.867,68.267z M221.867,136.533h170.667c9.426,0,17.067,7.641,17.067,17.067s-7.641,17.067-17.067,17.067
			H221.867c-9.426,0-17.067-7.641-17.067-17.067S212.441,136.533,221.867,136.533z M119.467,68.267c28.277,0,51.2,22.923,51.2,51.2
			s-22.923,51.2-51.2,51.2s-51.2-22.923-51.2-51.2S91.19,68.267,119.467,68.267z M443.733,426.667
			c0,9.426-7.641,17.067-17.067,17.067H51.2c-9.426,0-17.067-7.641-17.067-17.067V238.933h409.6V426.667z" fill="#FFF" />
	</g>
</g>
<g>
</g>
<g>
</g>
<g>
</g>
<g>
</g>
<g>
</g>
<g>
</g>
<g>
</g>
<g>
</g>
<g>
</g>
<g>
</g>
<g>
</g>
<g>
</g>
<g>
</g>
<g>
</g>
<g>
</g>
</svg>
